<svg xmlns:xlink="http://www.w3.org/1999/xlink" xmlns="http://www.w3.org/2000/svg" class="MuiSvgIcon-root MuiSvgIcon-fontSizeLarge front-page-1dvvwxe" focusable="false" aria-hidden="true" viewBox="0 0 24 24" data-testid="ArrowLeftThinIcon" width="35"  height="35" ><path d="M8.106 12.11c.008.037.015.072.031.107a.507.507 0 0 0 .056.102c.012.02.018.043.034.061.011.012.026.018.037.029.012.011.017.026.029.037l6.647 5.664a.587.587 0 0 0 .761-.892l-6.124-5.219 6.124-5.219a.585.585 0 1 0-.761-.892l-6.647 5.664c-.014.011-.018.027-.031.04-.011.01-.024.014-.035.026-.015.018-.021.041-.034.061a.57.57 0 0 0-.087.209c-.006.037-.012.072-.012.11s.006.073.012.11z"></path></svg>